# xmcd
#
# Track frame offsets:
#  150
#  9757
#  26452
#  38082
#  54342
#  66885
#  77810
#  96727
#  108045
#  116750
#  126942
#  135447
#  146645
#
# Disc length: 2246 seconds
#
# Revision: 0
# Processed by: cddbd v1.5.1PL2 Copyright (c) Steve Scherf et al.
# Submitted via: Collectorz.com_Music_Collector 6.10
#
DISCID=a808c40d
DTITLE=Earl Hooker - Play Your Guitar, Mr. Hooker!
DYEAR=1993
DGENRE=Blues
TTITLE0=Swear To Tell The Truth
TTITLE1=F. Clark - You Took All My Love
TTITLE2=Otis Rush - All Your Love
TTITLE3=Walter Jacobs - Everything Gonna Be Alright
TTITLE4=Albert Collins - Frosty
TTITLE5=F. Clark - The Misfit (Got To Keep Movin')
TTITLE6=Earl Hooker Blues
TTITLE7=Lowell Fulson - Reconsider Baby
TTITLE8=Hot And Heavy (Alt. Take)
TTITLE9=Corthen - Neal - Colbert - She's Fine
TTITLE10=Dynamite
TTITLE11=Little Tommy - Hello Baby
TTITLE12=James Elmore - Dust My Broom
EXTD=
EXTT0=
EXTT1=
EXTT2=
EXTT3=
EXTT4=
EXTT5=
EXTT6=
EXTT7=
EXTT8=
EXTT9=
EXTT10=
EXTT11=
EXTT12=
PLAYORDER=
